<svg xmlns="http://www.w3.org/2000/svg" xmlns:xlink="http://www.w3.org/1999/xlink" fill="none" version="1.1" width="343" height="32" viewBox="0 0 343 32"><defs><linearGradient x1="96.4921875" y1="16" x2="246.4921875" y2="16" gradientUnits="userSpaceOnUse" id="master_svg0_469_31470"><stop offset="0%" stop-color="#00FF9D" stop-opacity="1"/><stop offset="50%" stop-color="#00B4FF" stop-opacity="1"/><stop offset="100%" stop-color="#00FF9D" stop-opacity="1"/></linearGradient></defs><g><g><path d="M97.5502975,6.18412L105.1672975,6.18412L105.1672975,8.72025L97.5502975,8.72025L97.5502975,6.18412ZM104.3977975,6.18412L104.8601675,6.18412L105.3360475,6.08025L107.0835875,6.6735Q106.5637875,10.7741,105.4575475,14.1461Q104.3516675,17.5181,102.6904175,20.1041Q101.0295475,22.6901,98.8635475,24.4354Q98.5429175,23.9224,97.9751675,23.2811Q97.4074215,22.6395,96.9315465,22.2814Q98.3767975,21.2437,99.5989175,19.6384Q100.8214175,18.0326,101.7836675,16.0009Q102.7459175,13.9688,103.4145475,11.6269Q104.0835475,9.285,104.3977975,6.77475L104.3977975,6.18412ZM97.4614215,11.3711L99.4736675,9.77025Q100.4467975,11.0449,101.5106675,12.4901Q102.5745475,13.935,103.5960475,15.4012Q104.6175475,16.8675,105.4601675,18.2276Q106.3031675,19.5874,106.8153875,20.6779L104.5627975,22.6129Q104.0692975,21.4796,103.2611675,20.0865Q102.4530475,18.693,101.4836675,17.1772Q100.5142975,15.6615,99.4717975,14.1698Q98.4292975,12.6776,97.4614215,11.3711ZM109.9233875,6.98925L117.4395875,6.98925L117.4395875,9.58125L109.9233875,9.58125L109.9233875,6.98925ZM109.0758875,3.6495L111.7991875,3.99413Q111.4316875,7.11263,110.6568875,9.85388Q109.8821875,12.5947,108.5962875,14.4296Q108.3607875,14.208,107.9411875,13.8926Q107.5218875,13.5772,107.0808875,13.2712Q106.6398875,12.9653,106.3192975,12.7864Q107.1195875,11.7382,107.6647875,10.2971Q108.2100875,8.85563,108.5550875,7.15125Q108.9003875,5.44687,109.0758875,3.6495ZM116.8811875,6.98925L117.3060875,6.98925L117.7361875,6.89025L119.6846875,7.41413Q119.3268875,9.06112,118.8011875,10.749Q118.2753875,12.4369,117.7335875,13.6219L115.4805875,12.8737Q115.7527875,12.177,116.0156875,11.2444Q116.2785875,10.3117,116.5076875,9.30975Q116.7371875,8.30775,116.8811875,7.40587L116.8811875,6.98925ZM113.7007875,12.6727Q114.1008875,15.2081,114.8685875,17.3944Q115.6361875,19.5806,116.9238875,21.2033Q118.2120875,22.8255,120.1695875,23.7135Q119.8676875,23.9914,119.5068875,24.4174Q119.1461875,24.8438,118.8281875,25.3099Q118.5101875,25.7764,118.3068875,26.1532Q116.1757875,24.9821,114.8077875,23.0846Q113.4397875,21.1868,112.6316875,18.6386Q111.8238875,16.0901,111.3495875,13.0042L113.7007875,12.6727ZM111.2662875,10.7156L113.9842875,10.7156L113.9842875,12.5749Q113.9842875,14.0175,113.7735875,15.7575Q113.5627875,17.4975,112.8787875,19.3403Q112.1947875,21.183,110.8106875,22.9403Q109.42688749999999,24.6975,107.0621875,26.169Q106.8641875,25.8484,106.5060875,25.4741Q106.1482975,25.1003,105.7552975,24.7354Q105.3622975,24.3705,105.0229175,24.1541Q107.1712875,22.875,108.4282875,21.3622Q109.6852875,19.8495,110.2957875,18.2726Q110.9062875,16.6957,111.0862875,15.2153Q111.2662875,13.7344,111.2662875,12.519L111.2662875,10.7156ZM127.0905875,11.8241L127.0905875,21.8089L124.2791875,21.8089L124.2791875,14.4724L121.62038749999999,14.4724L121.62038749999999,11.8241L127.0905875,11.8241ZM121.8858875,6.50212L123.6202875,4.7865Q124.3695875,5.2185,125.1855875,5.77463Q126.0015875,6.33075,126.7215875,6.89625Q127.4415875,7.46175,127.8975875,7.96837L126.0318875,9.8925Q125.6321875,9.3855,124.9308875,8.78662Q124.2296875,8.18775,123.4323875,7.57987Q122.6351875,6.97162,121.8858875,6.50212ZM126.1181875,20.7326Q126.6806875,20.7326,127.2232875,21.1297Q127.7658875,21.5269,128.7093875,22.0732Q129.8775875,22.785,131.4615875,22.9785Q133.0458875,23.1716,134.9733875,23.1716Q135.8955875,23.1716,137.04488750000002,23.1289Q138.1942875,23.0861,139.4156875,23.01Q140.6373875,22.9339,141.7815875,22.827Q142.9260875,22.7201,143.8567875,22.5923Q143.6966875,22.9688,143.5147875,23.5129Q143.33328749999998,24.0566,143.2061875,24.603Q143.0793875,25.1497,143.0553875,25.5371Q142.3721875,25.5799,141.3828875,25.6369Q140.3936875,25.6943,139.24428749999998,25.7276Q138.09528749999998,25.761,136.9676875,25.785Q135.8400875,25.809,134.8800875,25.809Q132.6772875,25.809,131.1277875,25.5397Q129.5786875,25.2705,128.3441875,24.567Q127.6162875,24.1245,127.0361875,23.6955Q126.4563875,23.2661,126.0618875,23.2661Q125.6861875,23.2661,125.2020875,23.7022Q124.7182875,24.1384,124.18508750000001,24.8036Q123.6521875,25.4689,123.1248875,26.1885L121.2675875,23.5875Q122.5132875,22.3507,123.8178875,21.5419Q125.1228875,20.7326,126.1181875,20.7326ZM135.2355875,5.08237L141.86068749999998,5.08237L141.86068749999998,7.50038L137.84628750000002,7.50038L137.84628750000002,22.419L135.2355875,22.419L135.2355875,5.08237ZM140.4041875,5.08237L143.0523875,5.08237L143.0523875,17.3213Q143.0523875,18.2025,142.8547875,18.7369Q142.6575875,19.2709,142.0916875,19.5915Q141.5546875,19.8937,140.7783875,19.9646Q140.0025875,20.0351,138.9495875,20.0351Q138.86928749999998,19.5221,138.6420875,18.8126Q138.4151875,18.1031,138.1507875,17.6167Q138.7466875,17.6408,139.3008875,17.6408Q139.8551875,17.6408,140.0388875,17.6355Q140.4041875,17.6355,140.4041875,17.265L140.4041875,5.08237ZM133.5517875,3.63638L135.5021875,5.78775Q134.1922875,6.49725,132.6892875,7.07063Q131.1866875,7.64363,129.8216875,8.06738Q129.7226875,7.64775,129.4676875,7.05187Q129.21268750000002,6.456,128.9666875,6.01762Q129.79058750000002,5.70037,130.63388750000001,5.31112Q131.4776875,4.92188,132.2358875,4.4805Q132.9945875,4.03913,133.5517875,3.63638ZM128.8695875,20.3419L128.6208875,17.9235L129.7665875,17.0077L134.7963875,15.7864Q134.7776875,16.3796,134.81368750000001,17.1307Q134.84968750000002,17.8815,134.9298875,18.3382Q133.18958750000002,18.8123,132.0896875,19.14Q130.9901875,19.4674,130.3567875,19.6845Q129.7233875,19.9016,129.3963875,20.0524Q129.0693875,20.2031,128.8695875,20.3419ZM128.8695875,20.3419Q128.7652875,20.04,128.5432875,19.6485Q128.3216875,19.257,128.0692875,18.8843Q127.8168875,18.5115,127.5948875,18.2846Q128.0220875,18.015,128.4941875,17.4251Q128.9666875,16.8349,128.9666875,15.9517L128.9666875,6.01762L131.6471875,6.01762L131.6471875,17.5747Q131.6471875,17.5747,131.3677875,17.7712Q131.0887875,17.9674,130.6747875,18.2798Q130.2607875,18.5921,129.8441875,18.9637Q129.42758750000002,19.335,129.1485875,19.6943Q128.8695875,20.0535,128.8695875,20.3419ZM159.2996875,21.2111L165.4575875,21.2111L165.4575875,23.985L159.2996875,23.985L159.2996875,21.2111ZM145.79138749999998,7.92L154.5780875,7.92L154.5780875,10.7314L145.79138749999998,10.7314L145.79138749999998,7.92ZM158.00888750000001,6.36L166.7505875,6.36L166.7505875,25.4779L163.85888749999998,25.4779L163.85888749999998,9.13387L160.76928750000002,9.13387L160.76928750000002,25.6646L158.00888750000001,25.6646L158.00888750000001,6.36ZM153.8700875,7.92L156.66308750000002,7.92Q156.66308750000002,7.92,156.66308750000002,8.16862Q156.66308750000002,8.41687,156.66308750000002,8.73337Q156.66308750000002,9.04988,156.6442875,9.23438Q156.57228750000002,13.0868,156.49088749999999,15.78Q156.4095875,18.4729,156.2921875,20.2103Q156.1747875,21.9476,155.9853875,22.9226Q155.7960875,23.8972,155.5080875,24.3135Q155.09968750000002,24.9116,154.6683875,25.1745Q154.2375875,25.4377,153.6450875,25.5551Q153.11408749999998,25.6729,152.3433875,25.6864Q151.5727875,25.6999,150.7432875,25.665Q150.7192875,25.029,150.4961875,24.207Q150.2730875,23.3854,149.9096875,22.7734Q150.6315875,22.8266,151.2416875,22.848Q151.8517875,22.8694,152.1825875,22.8694Q152.4465875,22.8746,152.6385875,22.7775Q152.8305875,22.68,152.9932875,22.4265Q153.1905875,22.1572,153.3277875,21.3135Q153.4650875,20.4694,153.5662875,18.858Q153.6675875,17.2463,153.7327875,14.7191Q153.7980875,12.192,153.8700875,8.54775L153.8700875,7.92ZM148.64668749999998,3.95625L151.4767875,3.95625Q151.4715875,7.5015,151.3728875,10.7381Q151.2742875,13.9744,150.8850875,16.809Q150.4957875,19.6436,149.6212875,21.9982Q148.7467875,24.3529,147.1950875,26.1585Q146.9730875,25.8056,146.6096875,25.3991Q146.2462875,24.993,145.8360875,24.624Q145.4261875,24.2554,145.0680875,24.039Q146.1900875,22.7722,146.8777875,21.1766Q147.5655875,19.581,147.9330875,17.6842Q148.3005875,15.7875,148.4508875,13.6136Q148.6016875,11.4394,148.6241875,9.01013Q148.64668749999998,6.58088,148.64668749999998,3.95625ZM175.1058875,6.23663L176.88568750000002,3.74587Q178.5416875,4.95412,179.7525875,6.29663Q180.9633875,7.63912,181.8993875,9.07912Q182.83578749999998,10.5188,183.6397875,11.9906Q184.4441875,13.4621,185.2537875,14.9126Q186.0633875,16.3628,187.00358749999998,17.7304Q187.9436875,19.098,189.1728875,20.3423Q190.4021875,21.5861,192.0656875,22.6316Q191.8440875,23.0269,191.54478749999998,23.6362Q191.2455875,24.2456,190.9980875,24.8644Q190.7508875,25.4831,190.67068749999999,25.9403Q188.92688750000002,24.9697,187.6053875,23.6737Q186.2838875,22.3778,185.2541875,20.871Q184.2247875,19.3643,183.3536875,17.7615Q182.4828875,16.1588,181.6410875,14.5414Q180.7995875,12.924,179.86318749999998,11.4094Q178.9271875,9.89475,177.7710875,8.571Q176.6148875,7.24688,175.1058875,6.23663ZM178.99088749999999,9.37313L182.2863875,9.96638Q181.4223875,13.6939,180.0236875,16.7126Q178.6248875,19.7314,176.63408750000002,22.0249Q174.6435875,24.3184,171.9990875,25.8754Q171.7395875,25.56,171.2636875,25.1175Q170.7881875,24.6754,170.2657875,24.2302Q169.74338749999998,23.7855,169.3612875,23.526Q173.3201875,21.5644,175.6462875,17.976Q177.97278749999998,14.3876,178.99088749999999,9.37313ZM213.5991875,15.0831L213.5991875,21.8452Q213.2031875,22.322,212.3731875,22.8783Q211.5421875,23.4346,210.2301875,23.8345Q208.9181875,24.2344,207.0551875,24.2344Q205.4021875,24.2344,204.0431875,23.6895Q202.68518749999998,23.1445,201.7061875,22.0878Q200.7271875,21.0309,200.19818750000002,19.5013Q199.6681875,17.9716,199.6681875,16.006L199.6681875,14.9357Q199.6681875,12.9701,200.1791875,11.4384Q200.69018749999998,9.90656,201.6361875,8.84985Q202.5831875,7.79297,203.8961875,7.2442Q205.20918749999998,6.69525,206.82218749999998,6.69525Q209.04918750000002,6.69525,210.4741875,7.41669Q211.90018750000002,8.13812,212.6561875,9.40521Q213.41218750000002,10.6721,213.5911875,12.3188L210.18618750000002,12.3188Q210.0571875,11.4485,209.6931875,10.8019Q209.3301875,10.1554,208.6561875,9.79578Q207.98318749999999,9.43616,206.9171875,9.43616Q206.0351875,9.43616,205.34618749999998,9.79028Q204.6581875,10.1444,204.1911875,10.838Q203.7241875,11.5314,203.4801875,12.5528Q203.2361875,13.5742,203.2361875,14.9123L203.2361875,16.006Q203.2361875,17.3474,203.4951875,18.3726Q203.7531875,19.3978,204.2591875,20.0933Q204.7641875,20.7885,205.5181875,21.143Q206.2711875,21.4973,207.25818750000002,21.4973Q208.0921875,21.4973,208.6511875,21.3558Q209.2111875,21.2142,209.5571875,21.0066Q209.9031875,20.7988,210.0861875,20.6124L210.0861875,17.5862L206.87618750000001,17.5862L206.87618750000001,15.0831L213.5991875,15.0831ZM221.6801875,24L217.9671875,24L217.9901875,21.2629L221.6801875,21.2629Q223.0641875,21.2629,224.00818750000002,20.6343Q224.9531875,20.0057,225.4411875,18.7996Q225.9301875,17.5935,225.9301875,15.8811L225.9301875,15.0447Q225.9301875,13.7386,225.6531875,12.739Q225.3771875,11.7393,224.8411875,11.0594Q224.3041875,10.3795,223.5161875,10.0329Q222.7281875,9.68628,221.7081875,9.68628L217.8971875,9.68628L217.8971875,6.9375L221.7081875,6.9375Q223.42418750000002,6.9375,224.8501875,7.51794Q226.2771875,8.09839,227.3191875,9.17908Q228.3601875,10.2596,228.9271875,11.7501Q229.4941875,13.2404,229.4941875,15.0681L229.4941875,15.8811Q229.4941875,17.701,228.9271875,19.1953Q228.3601875,20.6896,227.3191875,21.7645Q226.2771875,22.8391,224.8451875,23.4196Q223.4141875,24,221.6801875,24ZM219.95218749999998,6.9375L219.95218749999998,24L216.43618750000002,24L216.43618750000002,6.9375L219.95218749999998,6.9375ZM238.7231875,9.85474L234.0831875,24L230.3451875,24L236.6901875,6.9375L239.0681875,6.9375L238.7231875,9.85474ZM242.5841875,24L237.9321875,9.85474L237.5561875,6.9375L239.9571875,6.9375L246.3341875,24L242.5841875,24ZM242.3781875,17.6519L242.3781875,20.4007L233.3561875,20.4007L233.3561875,17.6519L242.3781875,17.6519Z" fill="url(#master_svg0_469_31470)" fill-opacity="1" style="mix-blend-mode:passthrough"/><path d="M97.5502975,6.18412L105.1672975,6.18412L105.1672975,8.72025L97.5502975,8.72025L97.5502975,6.18412ZM104.3977975,6.18412L104.8601675,6.18412L105.3360475,6.08025L107.0835875,6.6735Q106.5637875,10.7741,105.4575475,14.1461Q104.3516675,17.5181,102.6904175,20.1041Q101.0295475,22.6901,98.8635475,24.4354Q98.5429175,23.9224,97.9751675,23.2811Q97.4074215,22.6395,96.9315465,22.2814Q98.3767975,21.2437,99.5989175,19.6384Q100.8214175,18.0326,101.7836675,16.0009Q102.7459175,13.9688,103.4145475,11.6269Q104.0835475,9.285,104.3977975,6.77475L104.3977975,6.18412ZM97.4614215,11.3711L99.4736675,9.77025Q100.4467975,11.0449,101.5106675,12.4901Q102.5745475,13.935,103.5960475,15.4012Q104.6175475,16.8675,105.4601675,18.2276Q106.3031675,19.5874,106.8153875,20.6779L104.5627975,22.6129Q104.0692975,21.4796,103.2611675,20.0865Q102.4530475,18.693,101.4836675,17.1772Q100.5142975,15.6615,99.4717975,14.1698Q98.4292975,12.6776,97.4614215,11.3711ZM109.9233875,6.98925L117.4395875,6.98925L117.4395875,9.58125L109.9233875,9.58125L109.9233875,6.98925ZM109.0758875,3.6495L111.7991875,3.99413Q111.4316875,7.11263,110.6568875,9.85388Q109.8821875,12.5947,108.5962875,14.4296Q108.3607875,14.208,107.9411875,13.8926Q107.5218875,13.5772,107.0808875,13.2712Q106.6398875,12.9653,106.3192975,12.7864Q107.1195875,11.7382,107.6647875,10.2971Q108.2100875,8.85563,108.5550875,7.15125Q108.9003875,5.44687,109.0758875,3.6495ZM116.8811875,6.98925L117.3060875,6.98925L117.7361875,6.89025L119.6846875,7.41413Q119.3268875,9.06112,118.8011875,10.749Q118.2753875,12.4369,117.7335875,13.6219L115.4805875,12.8737Q115.7527875,12.177,116.0156875,11.2444Q116.2785875,10.3117,116.5076875,9.30975Q116.7371875,8.30775,116.8811875,7.40587L116.8811875,6.98925ZM113.7007875,12.6727Q114.1008875,15.2081,114.8685875,17.3944Q115.6361875,19.5806,116.9238875,21.2033Q118.2120875,22.8255,120.1695875,23.7135Q119.8676875,23.9914,119.5068875,24.4174Q119.1461875,24.8438,118.8281875,25.3099Q118.5101875,25.7764,118.3068875,26.1532Q116.1757875,24.9821,114.8077875,23.0846Q113.4397875,21.1868,112.6316875,18.6386Q111.8238875,16.0901,111.3495875,13.0042L113.7007875,12.6727ZM111.2662875,10.7156L113.9842875,10.7156L113.9842875,12.5749Q113.9842875,14.0175,113.7735875,15.7575Q113.5627875,17.4975,112.8787875,19.3403Q112.1947875,21.183,110.8106875,22.9403Q109.42688749999999,24.6975,107.0621875,26.169Q106.8641875,25.8484,106.5060875,25.4741Q106.1482975,25.1003,105.7552975,24.7354Q105.3622975,24.3705,105.0229175,24.1541Q107.1712875,22.875,108.4282875,21.3622Q109.6852875,19.8495,110.2957875,18.2726Q110.9062875,16.6957,111.0862875,15.2153Q111.2662875,13.7344,111.2662875,12.519L111.2662875,10.7156ZM127.0905875,11.8241L127.0905875,21.8089L124.2791875,21.8089L124.2791875,14.4724L121.62038749999999,14.4724L121.62038749999999,11.8241L127.0905875,11.8241ZM121.8858875,6.50212L123.6202875,4.7865Q124.3695875,5.2185,125.1855875,5.77463Q126.0015875,6.33075,126.7215875,6.89625Q127.4415875,7.46175,127.8975875,7.96837L126.0318875,9.8925Q125.6321875,9.3855,124.9308875,8.78662Q124.2296875,8.18775,123.4323875,7.57987Q122.6351875,6.97162,121.8858875,6.50212ZM126.1181875,20.7326Q126.6806875,20.7326,127.2232875,21.1297Q127.7658875,21.5269,128.7093875,22.0732Q129.8775875,22.785,131.4615875,22.9785Q133.0458875,23.1716,134.9733875,23.1716Q135.8955875,23.1716,137.04488750000002,23.1289Q138.1942875,23.0861,139.4156875,23.01Q140.6373875,22.9339,141.7815875,22.827Q142.9260875,22.7201,143.8567875,22.5923Q143.6966875,22.9688,143.5147875,23.5129Q143.33328749999998,24.0566,143.2061875,24.603Q143.0793875,25.1497,143.0553875,25.5371Q142.3721875,25.5799,141.3828875,25.6369Q140.3936875,25.6943,139.24428749999998,25.7276Q138.09528749999998,25.761,136.9676875,25.785Q135.8400875,25.809,134.8800875,25.809Q132.6772875,25.809,131.1277875,25.5397Q129.5786875,25.2705,128.3441875,24.567Q127.6162875,24.1245,127.0361875,23.6955Q126.4563875,23.2661,126.0618875,23.2661Q125.6861875,23.2661,125.2020875,23.7022Q124.7182875,24.1384,124.18508750000001,24.8036Q123.6521875,25.4689,123.1248875,26.1885L121.2675875,23.5875Q122.5132875,22.3507,123.8178875,21.5419Q125.1228875,20.7326,126.1181875,20.7326ZM135.2355875,5.08237L141.86068749999998,5.08237L141.86068749999998,7.50038L137.84628750000002,7.50038L137.84628750000002,22.419L135.2355875,22.419L135.2355875,5.08237ZM140.4041875,5.08237L143.0523875,5.08237L143.0523875,17.3213Q143.0523875,18.2025,142.8547875,18.7369Q142.6575875,19.2709,142.0916875,19.5915Q141.5546875,19.8937,140.7783875,19.9646Q140.0025875,20.0351,138.9495875,20.0351Q138.86928749999998,19.5221,138.6420875,18.8126Q138.4151875,18.1031,138.1507875,17.6167Q138.7466875,17.6408,139.3008875,17.6408Q139.8551875,17.6408,140.0388875,17.6355Q140.4041875,17.6355,140.4041875,17.265L140.4041875,5.08237ZM133.5517875,3.63638L135.5021875,5.78775Q134.1922875,6.49725,132.6892875,7.07063Q131.1866875,7.64363,129.8216875,8.06738Q129.7226875,7.64775,129.4676875,7.05187Q129.21268750000002,6.456,128.9666875,6.01762Q129.79058750000002,5.70037,130.63388750000001,5.31112Q131.4776875,4.92188,132.2358875,4.4805Q132.9945875,4.03913,133.5517875,3.63638ZM128.8695875,20.3419L128.6208875,17.9235L129.7665875,17.0077L134.7963875,15.7864Q134.7776875,16.3796,134.81368750000001,17.1307Q134.84968750000002,17.8815,134.9298875,18.3382Q133.18958750000002,18.8123,132.0896875,19.14Q130.9901875,19.4674,130.3567875,19.6845Q129.7233875,19.9016,129.3963875,20.0524Q129.0693875,20.2031,128.8695875,20.3419ZM128.8695875,20.3419Q128.7652875,20.04,128.5432875,19.6485Q128.3216875,19.257,128.0692875,18.8843Q127.8168875,18.5115,127.5948875,18.2846Q128.0220875,18.015,128.4941875,17.4251Q128.9666875,16.8349,128.9666875,15.9517L128.9666875,6.01762L131.6471875,6.01762L131.6471875,17.5747Q131.6471875,17.5747,131.3677875,17.7712Q131.0887875,17.9674,130.6747875,18.2798Q130.2607875,18.5921,129.8441875,18.9637Q129.42758750000002,19.335,129.1485875,19.6943Q128.8695875,20.0535,128.8695875,20.3419ZM159.2996875,21.2111L165.4575875,21.2111L165.4575875,23.985L159.2996875,23.985L159.2996875,21.2111ZM145.79138749999998,7.92L154.5780875,7.92L154.5780875,10.7314L145.79138749999998,10.7314L145.79138749999998,7.92ZM158.00888750000001,6.36L166.7505875,6.36L166.7505875,25.4779L163.85888749999998,25.4779L163.85888749999998,9.13387L160.76928750000002,9.13387L160.76928750000002,25.6646L158.00888750000001,25.6646L158.00888750000001,6.36ZM153.8700875,7.92L156.66308750000002,7.92Q156.66308750000002,7.92,156.66308750000002,8.16862Q156.66308750000002,8.41687,156.66308750000002,8.73337Q156.66308750000002,9.04988,156.6442875,9.23438Q156.57228750000002,13.0868,156.49088749999999,15.78Q156.4095875,18.4729,156.2921875,20.2103Q156.1747875,21.9476,155.9853875,22.9226Q155.7960875,23.8972,155.5080875,24.3135Q155.09968750000002,24.9116,154.6683875,25.1745Q154.2375875,25.4377,153.6450875,25.5551Q153.11408749999998,25.6729,152.3433875,25.6864Q151.5727875,25.6999,150.7432875,25.665Q150.7192875,25.029,150.4961875,24.207Q150.2730875,23.3854,149.9096875,22.7734Q150.6315875,22.8266,151.2416875,22.848Q151.8517875,22.8694,152.1825875,22.8694Q152.4465875,22.8746,152.6385875,22.7775Q152.8305875,22.68,152.9932875,22.4265Q153.1905875,22.1572,153.3277875,21.3135Q153.4650875,20.4694,153.5662875,18.858Q153.6675875,17.2463,153.7327875,14.7191Q153.7980875,12.192,153.8700875,8.54775L153.8700875,7.92ZM148.64668749999998,3.95625L151.4767875,3.95625Q151.4715875,7.5015,151.3728875,10.7381Q151.2742875,13.9744,150.8850875,16.809Q150.4957875,19.6436,149.6212875,21.9982Q148.7467875,24.3529,147.1950875,26.1585Q146.9730875,25.8056,146.6096875,25.3991Q146.2462875,24.993,145.8360875,24.624Q145.4261875,24.2554,145.0680875,24.039Q146.1900875,22.7722,146.8777875,21.1766Q147.5655875,19.581,147.9330875,17.6842Q148.3005875,15.7875,148.4508875,13.6136Q148.6016875,11.4394,148.6241875,9.01013Q148.64668749999998,6.58088,148.64668749999998,3.95625ZM175.1058875,6.23663L176.88568750000002,3.74587Q178.5416875,4.95412,179.7525875,6.29663Q180.9633875,7.63912,181.8993875,9.07912Q182.83578749999998,10.5188,183.6397875,11.9906Q184.4441875,13.4621,185.2537875,14.9126Q186.0633875,16.3628,187.00358749999998,17.7304Q187.9436875,19.098,189.1728875,20.3423Q190.4021875,21.5861,192.0656875,22.6316Q191.8440875,23.0269,191.54478749999998,23.6362Q191.2455875,24.2456,190.9980875,24.8644Q190.7508875,25.4831,190.67068749999999,25.9403Q188.92688750000002,24.9697,187.6053875,23.6737Q186.2838875,22.3778,185.2541875,20.871Q184.2247875,19.3643,183.3536875,17.7615Q182.4828875,16.1588,181.6410875,14.5414Q180.7995875,12.924,179.86318749999998,11.4094Q178.9271875,9.89475,177.7710875,8.571Q176.6148875,7.24688,175.1058875,6.23663ZM178.99088749999999,9.37313L182.2863875,9.96638Q181.4223875,13.6939,180.0236875,16.7126Q178.6248875,19.7314,176.63408750000002,22.0249Q174.6435875,24.3184,171.9990875,25.8754Q171.7395875,25.56,171.2636875,25.1175Q170.7881875,24.6754,170.2657875,24.2302Q169.74338749999998,23.7855,169.3612875,23.526Q173.3201875,21.5644,175.6462875,17.976Q177.97278749999998,14.3876,178.99088749999999,9.37313ZM213.5991875,15.0831L213.5991875,21.8452Q213.2031875,22.322,212.3731875,22.8783Q211.5421875,23.4346,210.2301875,23.8345Q208.9181875,24.2344,207.0551875,24.2344Q205.4021875,24.2344,204.0431875,23.6895Q202.68518749999998,23.1445,201.7061875,22.0878Q200.7271875,21.0309,200.19818750000002,19.5013Q199.6681875,17.9716,199.6681875,16.006L199.6681875,14.9357Q199.6681875,12.9701,200.1791875,11.4384Q200.69018749999998,9.90656,201.6361875,8.84985Q202.5831875,7.79297,203.8961875,7.2442Q205.20918749999998,6.69525,206.82218749999998,6.69525Q209.04918750000002,6.69525,210.4741875,7.41669Q211.90018750000002,8.13812,212.6561875,9.40521Q213.41218750000002,10.6721,213.5911875,12.3188L210.18618750000002,12.3188Q210.0571875,11.4485,209.6931875,10.8019Q209.3301875,10.1554,208.6561875,9.79578Q207.98318749999999,9.43616,206.9171875,9.43616Q206.0351875,9.43616,205.34618749999998,9.79028Q204.6581875,10.1444,204.1911875,10.838Q203.7241875,11.5314,203.4801875,12.5528Q203.2361875,13.5742,203.2361875,14.9123L203.2361875,16.006Q203.2361875,17.3474,203.4951875,18.3726Q203.7531875,19.3978,204.2591875,20.0933Q204.7641875,20.7885,205.5181875,21.143Q206.2711875,21.4973,207.25818750000002,21.4973Q208.0921875,21.4973,208.6511875,21.3558Q209.2111875,21.2142,209.5571875,21.0066Q209.9031875,20.7988,210.0861875,20.6124L210.0861875,17.5862L206.87618750000001,17.5862L206.87618750000001,15.0831L213.5991875,15.0831ZM221.6801875,24L217.9671875,24L217.9901875,21.2629L221.6801875,21.2629Q223.0641875,21.2629,224.00818750000002,20.6343Q224.9531875,20.0057,225.4411875,18.7996Q225.9301875,17.5935,225.9301875,15.8811L225.9301875,15.0447Q225.9301875,13.7386,225.6531875,12.739Q225.3771875,11.7393,224.8411875,11.0594Q224.3041875,10.3795,223.5161875,10.0329Q222.7281875,9.68628,221.7081875,9.68628L217.8971875,9.68628L217.8971875,6.9375L221.7081875,6.9375Q223.42418750000002,6.9375,224.8501875,7.51794Q226.2771875,8.09839,227.3191875,9.17908Q228.3601875,10.2596,228.9271875,11.7501Q229.4941875,13.2404,229.4941875,15.0681L229.4941875,15.8811Q229.4941875,17.701,228.9271875,19.1953Q228.3601875,20.6896,227.3191875,21.7645Q226.2771875,22.8391,224.8451875,23.4196Q223.4141875,24,221.6801875,24ZM219.95218749999998,6.9375L219.95218749999998,24L216.43618750000002,24L216.43618750000002,6.9375L219.95218749999998,6.9375ZM238.7231875,9.85474L234.0831875,24L230.3451875,24L236.6901875,6.9375L239.0681875,6.9375L238.7231875,9.85474ZM242.5841875,24L237.9321875,9.85474L237.5561875,6.9375L239.9571875,6.9375L246.3341875,24L242.5841875,24ZM242.3781875,17.6519L242.3781875,20.4007L233.3561875,20.4007L233.3561875,17.6519L242.3781875,17.6519Z" fill="#000000" fill-opacity="0" style="mix-blend-mode:passthrough"/></g></g></svg>